<svg width="1920" height="1080" viewBox="0 0 1920 1080" fill="none" xmlns="http://www.w3.org/2000/svg">
<g clip-path="url(#clip0_3092_122275)">
<rect width="1920" height="1080" fill="url(#paint0_linear_3092_122275)"/>
<circle cx="116" cy="1038" r="450" fill="#3787FA"/>
<ellipse cx="116" cy="1038" rx="355.525" ry="355.525" fill="#2B80F9"/>
<circle cx="116" cy="1038" r="272.238" fill="#3787FA"/>
<path d="M989.829 209.563C782.034 228.723 640.695 77.8378 596 0L1920 5.23909V1080H1772.12C1314.24 1023.12 1391.32 796.341 1487.09 690.062C1543.03 615.468 1644.17 435.742 1601.26 313.597C1547.62 160.915 1249.57 185.613 989.829 209.563Z" fill="url(#paint1_linear_3092_122275)"/>
<line y1="-1" x2="12.4557" y2="-1" transform="matrix(0.34202 0.939693 0.939693 -0.34202 204.18 261.934)" stroke="#76AEFF" stroke-width="2"/>
<line y1="-1" x2="12.4557" y2="-1" transform="matrix(0.5 0.866025 0.866025 -0.5 230.73 262.322)" stroke="#76AEFF" stroke-width="2"/>
<line y1="-1" x2="12.4557" y2="-1" transform="matrix(0.642788 0.766044 0.766044 -0.642788 257.422 262.712)" stroke="#76AEFF" stroke-width="2"/>
<line y1="-1" x2="12.4557" y2="-1" transform="matrix(0.766044 0.642788 0.642788 -0.766044 284.293 263.49)" stroke="#76AEFF" stroke-width="2"/>
<line y1="-1" x2="12.4557" y2="-1" transform="matrix(-0.766044 0.642788 0.642788 0.766044 18.3516 263.49)" stroke="#76AEFF" stroke-width="2"/>
<line y1="-1" x2="12.4557" y2="-1" transform="matrix(-0.642788 0.766044 0.766044 0.642788 45.2266 262.712)" stroke="#76AEFF" stroke-width="2"/>
<line y1="-1" x2="12.4557" y2="-1" transform="matrix(-0.5 0.866025 0.866025 0.5 71.918 262.322)" stroke="#76AEFF" stroke-width="2"/>
<line y1="-1" x2="12.4557" y2="-1" transform="matrix(-0.34202 0.939693 0.939693 0.34202 98.4688 261.934)" stroke="#76AEFF" stroke-width="2"/>
<line y1="-1" x2="12.4557" y2="-1" transform="matrix(-0.173648 0.984808 0.984808 0.173648 124.922 261.544)" stroke="#76AEFF" stroke-width="2"/>
<line y1="-1" x2="12.4557" y2="-1" transform="matrix(0 1 1 0 151.324 261.544)" stroke="#76AEFF" stroke-width="2"/>
<line y1="-1" x2="12.4557" y2="-1" transform="matrix(0.173648 0.984808 0.984808 -0.173648 177.727 261.544)" stroke="#76AEFF" stroke-width="2"/>
<line y1="-1" x2="12.4557" y2="-1" transform="matrix(0.34202 0.939693 0.939693 -0.34202 176.156 240.136)" stroke="#76AEFF" stroke-width="2"/>
<line y1="-1" x2="12.4557" y2="-1" transform="matrix(0.5 0.866025 0.866025 -0.5 202.703 240.525)" stroke="#76AEFF" stroke-width="2"/>
<line y1="-1" x2="12.4557" y2="-1" transform="matrix(0.642788 0.766044 0.766044 -0.642788 229.395 240.914)" stroke="#76AEFF" stroke-width="2"/>
<line y1="-1" x2="12.4557" y2="-1" transform="matrix(0.766044 0.642788 0.642788 -0.766044 256.27 241.692)" stroke="#76AEFF" stroke-width="2"/>
<line y1="-1" x2="12.4557" y2="-1" transform="matrix(0.866025 0.5 0.5 -0.866025 283.359 242.86)" stroke="#76AEFF" stroke-width="2"/>
<line y1="-1" x2="12.4557" y2="-1" transform="matrix(-0.642788 0.766044 0.766044 0.642788 17.2031 240.914)" stroke="#76AEFF" stroke-width="2"/>
<line y1="-1" x2="12.4557" y2="-1" transform="matrix(-0.5 0.866025 0.866025 0.5 43.8945 240.525)" stroke="#76AEFF" stroke-width="2"/>
<line y1="-1" x2="12.4557" y2="-1" transform="matrix(-0.34202 0.939693 0.939693 0.34202 70.4414 240.136)" stroke="#76AEFF" stroke-width="2"/>
<line y1="-1" x2="12.4557" y2="-1" transform="matrix(-0.173648 0.984808 0.984808 0.173648 96.8945 239.747)" stroke="#76AEFF" stroke-width="2"/>
<line y1="-1" x2="12.4557" y2="-1" transform="matrix(0 1 1 0 123.297 239.747)" stroke="#76AEFF" stroke-width="2"/>
<line y1="-1" x2="12.4557" y2="-1" transform="matrix(0.173648 0.984808 0.984808 -0.173648 149.703 239.747)" stroke="#76AEFF" stroke-width="2"/>
<line y1="-1" x2="12.4557" y2="-1" transform="matrix(0.34202 0.939693 0.939693 -0.34202 148.129 218.338)" stroke="#76AEFF" stroke-width="2"/>
<line y1="-1" x2="12.4557" y2="-1" transform="matrix(0.5 0.866025 0.866025 -0.5 174.68 218.728)" stroke="#76AEFF" stroke-width="2"/>
<line y1="-1" x2="12.4557" y2="-1" transform="matrix(0.642788 0.766044 0.766044 -0.642788 201.371 219.117)" stroke="#76AEFF" stroke-width="2"/>
<line y1="-1" x2="12.4557" y2="-1" transform="matrix(0.766044 0.642788 0.642788 -0.766044 228.246 219.896)" stroke="#76AEFF" stroke-width="2"/>
<line y1="-1" x2="12.4557" y2="-1" transform="matrix(0.866025 0.5 0.5 -0.866025 255.336 221.063)" stroke="#76AEFF" stroke-width="2"/>
<line y1="-1" x2="12.4557" y2="-1" transform="matrix(0.939693 0.34202 0.34202 -0.939693 282.672 221.842)" stroke="#76AEFF" stroke-width="2"/>
<line y1="-1" x2="12.4557" y2="-1" transform="matrix(-0.5 0.866025 0.866025 0.5 15.8672 218.728)" stroke="#76AEFF" stroke-width="2"/>
<line y1="-1" x2="12.4557" y2="-1" transform="matrix(-0.34202 0.939693 0.939693 0.34202 42.418 218.338)" stroke="#76AEFF" stroke-width="2"/>
<line y1="-1" x2="12.4557" y2="-1" transform="matrix(-0.173648 0.984808 0.984808 0.173648 68.8711 217.949)" stroke="#76AEFF" stroke-width="2"/>
<line y1="-1" x2="12.4557" y2="-1" transform="matrix(0 1 1 0 95.2734 217.949)" stroke="#76AEFF" stroke-width="2"/>
<line y1="-1" x2="12.4557" y2="-1" transform="matrix(0.173648 0.984808 0.984808 -0.173648 121.676 217.949)" stroke="#76AEFF" stroke-width="2"/>
<line y1="-1" x2="12.4557" y2="-1" transform="matrix(0.34202 0.939693 0.939693 -0.34202 120.105 196.541)" stroke="#76AEFF" stroke-width="2"/>
<line y1="-1" x2="12.4557" y2="-1" transform="matrix(0.5 0.866025 0.866025 -0.5 146.652 196.93)" stroke="#76AEFF" stroke-width="2"/>
<line y1="-1" x2="12.4557" y2="-1" transform="matrix(0.642788 0.766044 0.766044 -0.642788 173.344 197.319)" stroke="#76AEFF" stroke-width="2"/>
<line y1="-1" x2="12.4557" y2="-1" transform="matrix(0.766044 0.642788 0.642788 -0.766044 200.219 198.098)" stroke="#76AEFF" stroke-width="2"/>
<line y1="-1" x2="12.4557" y2="-1" transform="matrix(0.866025 0.5 0.5 -0.866025 227.312 199.266)" stroke="#76AEFF" stroke-width="2"/>
<line y1="-1" x2="12.4557" y2="-1" transform="matrix(0.939693 0.34202 0.34202 -0.939693 254.648 200.044)" stroke="#76AEFF" stroke-width="2"/>
<line y1="-1" x2="12.4557" y2="-1" transform="matrix(0.984808 0.173648 0.173648 -0.984808 282.254 201.212)" stroke="#76AEFF" stroke-width="2"/>
<line y1="-1" x2="12.4557" y2="-1" transform="matrix(-0.34202 0.939693 0.939693 0.34202 14.3906 196.541)" stroke="#76AEFF" stroke-width="2"/>
<line y1="-1" x2="12.4557" y2="-1" transform="matrix(-0.173648 0.984808 0.984808 0.173648 40.8438 196.151)" stroke="#76AEFF" stroke-width="2"/>
<line y1="-1" x2="12.4557" y2="-1" transform="matrix(0 1 1 0 67.2461 196.151)" stroke="#76AEFF" stroke-width="2"/>
<line y1="-1" x2="12.4557" y2="-1" transform="matrix(0.173648 0.984808 0.984808 -0.173648 93.6523 196.151)" stroke="#76AEFF" stroke-width="2"/>
<line y1="-1" x2="12.4557" y2="-1" transform="matrix(0.34202 0.939693 0.939693 -0.34202 92.0781 174.743)" stroke="#76AEFF" stroke-width="2"/>
<line y1="-1" x2="12.4557" y2="-1" transform="matrix(0.5 0.866025 0.866025 -0.5 118.629 175.133)" stroke="#76AEFF" stroke-width="2"/>
<line y1="-1" x2="12.4557" y2="-1" transform="matrix(0.642788 0.766044 0.766044 -0.642788 145.32 175.521)" stroke="#76AEFF" stroke-width="2"/>
<line y1="-1" x2="12.4557" y2="-1" transform="matrix(0.766044 0.642788 0.642788 -0.766044 172.195 176.301)" stroke="#76AEFF" stroke-width="2"/>
<line y1="-1" x2="12.4557" y2="-1" transform="matrix(0.866025 0.5 0.5 -0.866025 199.285 177.468)" stroke="#76AEFF" stroke-width="2"/>
<line y1="-1" x2="12.4557" y2="-1" transform="matrix(0.939693 0.34202 0.34202 -0.939693 226.621 178.247)" stroke="#76AEFF" stroke-width="2"/>
<line y1="-1" x2="12.4557" y2="-1" transform="matrix(0.984808 0.173648 0.173648 -0.984808 254.227 179.414)" stroke="#76AEFF" stroke-width="2"/>
<line y1="-1" x2="12.4557" y2="-1" transform="matrix(-0.173648 0.984808 0.984808 0.173648 12.8203 174.354)" stroke="#76AEFF" stroke-width="2"/>
<line y1="-1" x2="12.4557" y2="-1" transform="matrix(0 1 1 0 39.2227 174.354)" stroke="#76AEFF" stroke-width="2"/>
<line y1="-1" x2="12.4557" y2="-1" transform="matrix(0.173648 0.984808 0.984808 -0.173648 65.625 174.354)" stroke="#76AEFF" stroke-width="2"/>
<line y1="-1" x2="12.4557" y2="-1" transform="matrix(-1 0 0 1 297.68 180.582)" stroke="#76AEFF" stroke-width="2"/>
<line y1="-1" x2="12.4557" y2="-1" transform="matrix(0.34202 0.939693 0.939693 -0.34202 64.0547 152.946)" stroke="#76AEFF" stroke-width="2"/>
<line y1="-1" x2="12.4557" y2="-1" transform="matrix(0.5 0.866025 0.866025 -0.5 90.6016 153.335)" stroke="#76AEFF" stroke-width="2"/>
<line y1="-1" x2="12.4557" y2="-1" transform="matrix(0.642788 0.766044 0.766044 -0.642788 117.293 153.725)" stroke="#76AEFF" stroke-width="2"/>
<line y1="-1" x2="12.4557" y2="-1" transform="matrix(0.766044 0.642788 0.642788 -0.766044 144.168 154.503)" stroke="#76AEFF" stroke-width="2"/>
<line y1="-1" x2="12.4557" y2="-1" transform="matrix(0.866025 0.5 0.5 -0.866025 171.262 155.671)" stroke="#76AEFF" stroke-width="2"/>
<line y1="-1" x2="12.4557" y2="-1" transform="matrix(0.939693 0.34202 0.34202 -0.939693 198.598 156.449)" stroke="#76AEFF" stroke-width="2"/>
<line y1="-1" x2="12.4557" y2="-1" transform="matrix(0.984808 0.173648 0.173648 -0.984808 226.203 157.617)" stroke="#76AEFF" stroke-width="2"/>
<line y1="-1" x2="12.4557" y2="-1" transform="matrix(0 1 1 0 11.1953 152.557)" stroke="#76AEFF" stroke-width="2"/>
<line y1="-1" x2="12.4557" y2="-1" transform="matrix(0.173648 0.984808 0.984808 -0.173648 37.6016 152.557)" stroke="#76AEFF" stroke-width="2"/>
<line y1="-1" x2="12.4557" y2="-1" transform="matrix(-1 0 0 1 269.652 158.784)" stroke="#76AEFF" stroke-width="2"/>
<line y1="-1" x2="12.4557" y2="-1" transform="matrix(-0.984808 0.173648 0.173648 0.984808 297.539 157.617)" stroke="#76AEFF" stroke-width="2"/>
<line y1="-1" x2="12.4557" y2="-1" transform="matrix(0.34202 0.939693 0.939693 -0.34202 36.0273 131.148)" stroke="#76AEFF" stroke-width="2"/>
<line y1="-1" x2="12.4557" y2="-1" transform="matrix(0.5 0.866025 0.866025 -0.5 62.5781 131.538)" stroke="#76AEFF" stroke-width="2"/>
<line y1="-1" x2="12.4557" y2="-1" transform="matrix(0.642788 0.766044 0.766044 -0.642788 89.2695 131.927)" stroke="#76AEFF" stroke-width="2"/>
<line y1="-1" x2="12.4557" y2="-1" transform="matrix(0.766044 0.642788 0.642788 -0.766044 116.145 132.705)" stroke="#76AEFF" stroke-width="2"/>
<line y1="-1" x2="12.4557" y2="-1" transform="matrix(0.866025 0.5 0.5 -0.866025 143.234 133.873)" stroke="#76AEFF" stroke-width="2"/>
<line y1="-1" x2="12.4557" y2="-1" transform="matrix(0.939693 0.34202 0.34202 -0.939693 170.57 134.651)" stroke="#76AEFF" stroke-width="2"/>
<line y1="-1" x2="12.4557" y2="-1" transform="matrix(0.984808 0.173648 0.173648 -0.984808 198.176 135.819)" stroke="#76AEFF" stroke-width="2"/>
<line y1="-1" x2="12.4557" y2="-1" transform="matrix(0.173648 0.984808 0.984808 -0.173648 9.57422 130.759)" stroke="#76AEFF" stroke-width="2"/>
<line y1="-1" x2="12.4557" y2="-1" transform="matrix(-1 0 0 1 241.629 136.987)" stroke="#76AEFF" stroke-width="2"/>
<line y1="-1" x2="12.4557" y2="-1" transform="matrix(-0.984808 0.173648 0.173648 0.984808 269.512 135.819)" stroke="#76AEFF" stroke-width="2"/>
<line y1="-1" x2="12.4557" y2="-1" transform="matrix(-0.939693 0.34202 0.34202 0.939693 297.117 134.651)" stroke="#76AEFF" stroke-width="2"/>
<line y1="-1" x2="12.4557" y2="-1" transform="matrix(0.34202 0.939693 0.939693 -0.34202 8.00391 109.351)" stroke="#76AEFF" stroke-width="2"/>
<line y1="-1" x2="12.4557" y2="-1" transform="matrix(0.5 0.866025 0.866025 -0.5 34.5508 109.74)" stroke="#76AEFF" stroke-width="2"/>
<line y1="-1" x2="12.4557" y2="-1" transform="matrix(0.642788 0.766044 0.766044 -0.642788 61.2422 110.13)" stroke="#76AEFF" stroke-width="2"/>
<line y1="-1" x2="12.4557" y2="-1" transform="matrix(0.766044 0.642788 0.642788 -0.766044 88.1172 110.908)" stroke="#76AEFF" stroke-width="2"/>
<line y1="-1" x2="12.4557" y2="-1" transform="matrix(0.866025 0.5 0.5 -0.866025 115.211 112.076)" stroke="#76AEFF" stroke-width="2"/>
<line y1="-1" x2="12.4557" y2="-1" transform="matrix(0.939693 0.34202 0.34202 -0.939693 142.547 112.854)" stroke="#76AEFF" stroke-width="2"/>
<line y1="-1" x2="12.4557" y2="-1" transform="matrix(0.984808 0.173648 0.173648 -0.984808 170.152 114.021)" stroke="#76AEFF" stroke-width="2"/>
<line y1="-1" x2="12.4557" y2="-1" transform="matrix(-0.866025 0.5 0.5 0.866025 296.43 112.076)" stroke="#76AEFF" stroke-width="2"/>
<line y1="-1" x2="12.4557" y2="-1" transform="matrix(-1 0 0 1 213.605 115.189)" stroke="#76AEFF" stroke-width="2"/>
<line y1="-1" x2="12.4557" y2="-1" transform="matrix(-0.984808 0.173648 0.173648 0.984808 241.488 114.021)" stroke="#76AEFF" stroke-width="2"/>
<line y1="-1" x2="12.4557" y2="-1" transform="matrix(-0.939693 0.34202 0.34202 0.939693 269.09 112.854)" stroke="#76AEFF" stroke-width="2"/>
<line y1="-1" x2="12.4557" y2="-1" transform="matrix(0.5 0.866025 0.866025 -0.5 6.52734 87.9424)" stroke="#76AEFF" stroke-width="2"/>
<line y1="-1" x2="12.4557" y2="-1" transform="matrix(0.642788 0.766044 0.766044 -0.642788 33.2188 88.332)" stroke="#76AEFF" stroke-width="2"/>
<line y1="-1" x2="12.4557" y2="-1" transform="matrix(0.766044 0.642788 0.642788 -0.766044 60.0938 89.1104)" stroke="#76AEFF" stroke-width="2"/>
<line y1="-1" x2="12.4557" y2="-1" transform="matrix(0.866025 0.5 0.5 -0.866025 87.1836 90.2783)" stroke="#76AEFF" stroke-width="2"/>
<line y1="-1" x2="12.4557" y2="-1" transform="matrix(0.939693 0.34202 0.34202 -0.939693 114.52 91.0566)" stroke="#76AEFF" stroke-width="2"/>
<line y1="-1" x2="12.4557" y2="-1" transform="matrix(0.984808 0.173648 0.173648 -0.984808 142.125 92.2246)" stroke="#76AEFF" stroke-width="2"/>
<line y1="-1" x2="12.4557" y2="-1" transform="matrix(-0.866025 0.5 0.5 0.866025 268.402 90.2783)" stroke="#76AEFF" stroke-width="2"/>
<line y1="-1" x2="12.4557" y2="-1" transform="matrix(-0.766044 0.642788 0.642788 0.766044 295.496 89.1104)" stroke="#76AEFF" stroke-width="2"/>
<line y1="-1" x2="12.4557" y2="-1" transform="matrix(-1 0 0 1 185.578 93.3926)" stroke="#76AEFF" stroke-width="2"/>
<line y1="-1" x2="12.4557" y2="-1" transform="matrix(-0.984808 0.173648 0.173648 0.984808 213.461 92.2246)" stroke="#76AEFF" stroke-width="2"/>
<line y1="-1" x2="12.4557" y2="-1" transform="matrix(-0.939693 0.34202 0.34202 0.939693 241.066 91.0566)" stroke="#76AEFF" stroke-width="2"/>
<line y1="-1" x2="12.4557" y2="-1" transform="matrix(0.642788 0.766044 0.766044 -0.642788 5.19141 66.5342)" stroke="#76AEFF" stroke-width="2"/>
<line y1="-1" x2="12.4557" y2="-1" transform="matrix(0.766044 0.642788 0.642788 -0.766044 32.0664 67.3135)" stroke="#76AEFF" stroke-width="2"/>
<line y1="-1" x2="12.4557" y2="-1" transform="matrix(0.866025 0.5 0.5 -0.866025 59.1602 68.4805)" stroke="#76AEFF" stroke-width="2"/>
<line y1="-1" x2="12.4557" y2="-1" transform="matrix(0.939693 0.34202 0.34202 -0.939693 86.4961 69.2588)" stroke="#76AEFF" stroke-width="2"/>
<line y1="-1" x2="12.4557" y2="-1" transform="matrix(0.984808 0.173648 0.173648 -0.984808 114.102 70.4268)" stroke="#76AEFF" stroke-width="2"/>
<line y1="-1" x2="12.4557" y2="-1" transform="matrix(-0.866025 0.5 0.5 0.866025 240.379 68.4805)" stroke="#76AEFF" stroke-width="2"/>
<line y1="-1" x2="12.4557" y2="-1" transform="matrix(-0.766044 0.642788 0.642788 0.766044 267.469 67.3135)" stroke="#76AEFF" stroke-width="2"/>
<line y1="-1" x2="12.4557" y2="-1" transform="matrix(-0.642788 0.766044 0.766044 0.642788 294.344 66.5342)" stroke="#76AEFF" stroke-width="2"/>
<line y1="-1" x2="12.4557" y2="-1" transform="matrix(-1 0 0 1 157.555 71.5947)" stroke="#76AEFF" stroke-width="2"/>
<line y1="-1" x2="12.4557" y2="-1" transform="matrix(-0.984808 0.173648 0.173648 0.984808 185.438 70.4268)" stroke="#76AEFF" stroke-width="2"/>
<line y1="-1" x2="12.4557" y2="-1" transform="matrix(-0.939693 0.34202 0.34202 0.939693 213.043 69.2588)" stroke="#76AEFF" stroke-width="2"/>
<line y1="-1" x2="12.4557" y2="-1" transform="matrix(0.766044 0.642788 0.642788 -0.766044 4.04297 45.5156)" stroke="#76AEFF" stroke-width="2"/>
<line y1="-1" x2="12.4557" y2="-1" transform="matrix(0.866025 0.5 0.5 -0.866025 31.1328 46.6836)" stroke="#76AEFF" stroke-width="2"/>
<line y1="-1" x2="12.4557" y2="-1" transform="matrix(0.939693 0.34202 0.34202 -0.939693 58.4688 47.4619)" stroke="#76AEFF" stroke-width="2"/>
<line y1="-1" x2="12.4557" y2="-1" transform="matrix(0.984808 0.173648 0.173648 -0.984808 86.0742 48.6299)" stroke="#76AEFF" stroke-width="2"/>
<line y1="-1" x2="12.4557" y2="-1" transform="matrix(-0.866025 0.5 0.5 0.866025 212.352 46.6836)" stroke="#76AEFF" stroke-width="2"/>
<line y1="-1" x2="12.4557" y2="-1" transform="matrix(-0.766044 0.642788 0.642788 0.766044 239.445 45.5156)" stroke="#76AEFF" stroke-width="2"/>
<line y1="-1" x2="12.4557" y2="-1" transform="matrix(-0.642788 0.766044 0.766044 0.642788 266.316 44.7373)" stroke="#76AEFF" stroke-width="2"/>
<line y1="-1" x2="12.4557" y2="-1" transform="matrix(-0.5 0.866025 0.866025 0.5 293.012 44.3477)" stroke="#76AEFF" stroke-width="2"/>
<line y1="-1" x2="12.4557" y2="-1" transform="matrix(-1 0 0 1 129.527 49.7969)" stroke="#76AEFF" stroke-width="2"/>
<line y1="-1" x2="12.4557" y2="-1" transform="matrix(-0.984808 0.173648 0.173648 0.984808 157.41 48.6299)" stroke="#76AEFF" stroke-width="2"/>
<line y1="-1" x2="12.4557" y2="-1" transform="matrix(-0.939693 0.34202 0.34202 0.939693 185.016 47.4619)" stroke="#76AEFF" stroke-width="2"/>
<line y1="-1" x2="12.4557" y2="-1" transform="matrix(0.866025 0.5 0.5 -0.866025 3.10938 24.8857)" stroke="#76AEFF" stroke-width="2"/>
<line y1="-1" x2="12.4557" y2="-1" transform="matrix(0.939693 0.34202 0.34202 -0.939693 30.4453 25.6641)" stroke="#76AEFF" stroke-width="2"/>
<line y1="-1" x2="12.4557" y2="-1" transform="matrix(0.984808 0.173648 0.173648 -0.984808 58.0508 26.832)" stroke="#76AEFF" stroke-width="2"/>
<line y1="-1" x2="12.4557" y2="-1" transform="matrix(-0.866025 0.5 0.5 0.866025 184.328 24.8857)" stroke="#76AEFF" stroke-width="2"/>
<line y1="-1" x2="12.4557" y2="-1" transform="matrix(-0.766044 0.642788 0.642788 0.766044 211.418 23.7178)" stroke="#76AEFF" stroke-width="2"/>
<line y1="-1" x2="12.4557" y2="-1" transform="matrix(-0.642788 0.766044 0.766044 0.642788 238.293 22.9395)" stroke="#76AEFF" stroke-width="2"/>
<line y1="-1" x2="12.4557" y2="-1" transform="matrix(-0.5 0.866025 0.866025 0.5 264.984 22.5508)" stroke="#76AEFF" stroke-width="2"/>
<line y1="-1" x2="12.4557" y2="-1" transform="matrix(-0.34202 0.939693 0.939693 0.34202 291.535 22.1611)" stroke="#76AEFF" stroke-width="2"/>
<line y1="-1" x2="12.4557" y2="-1" transform="matrix(-1 0 0 1 101.504 28)" stroke="#76AEFF" stroke-width="2"/>
<line y1="-1" x2="12.4557" y2="-1" transform="matrix(-0.984808 0.173648 0.173648 0.984808 129.387 26.832)" stroke="#76AEFF" stroke-width="2"/>
<line y1="-1" x2="12.4557" y2="-1" transform="matrix(-0.939693 0.34202 0.34202 0.939693 156.992 25.6641)" stroke="#76AEFF" stroke-width="2"/>
<line y1="-1" x2="12.4557" y2="-1" transform="matrix(0.939693 0.34202 0.34202 -0.939693 2.41797 3.86719)" stroke="#76AEFF" stroke-width="2"/>
<line y1="-1" x2="12.4557" y2="-1" transform="matrix(0.984808 0.173648 0.173648 -0.984808 30.0234 5.03418)" stroke="#76AEFF" stroke-width="2"/>
<line y1="-1" x2="12.4557" y2="-1" transform="matrix(-0.866025 0.5 0.5 0.866025 156.301 3.08789)" stroke="#76AEFF" stroke-width="2"/>
<line y1="-1" x2="12.4557" y2="-1" transform="matrix(-0.766044 0.642788 0.642788 0.766044 183.395 1.9209)" stroke="#76AEFF" stroke-width="2"/>
<line y1="-1" x2="12.4557" y2="-1" transform="matrix(-0.642788 0.766044 0.766044 0.642788 210.27 1.14258)" stroke="#76AEFF" stroke-width="2"/>
<line y1="-1" x2="12.4557" y2="-1" transform="matrix(-0.5 0.866025 0.866025 0.5 236.961 0.75293)" stroke="#76AEFF" stroke-width="2"/>
<line y1="-1" x2="12.4557" y2="-1" transform="matrix(-0.34202 0.939693 0.939693 0.34202 263.508 0.363281)" stroke="#76AEFF" stroke-width="2"/>
<line y1="-1" x2="12.4557" y2="-1" transform="matrix(-0.173648 0.984808 0.984808 0.173648 289.961 -0.0253906)" stroke="#76AEFF" stroke-width="2"/>
<line y1="-1" x2="12.4557" y2="-1" transform="matrix(-1 0 0 1 73.4766 6.20215)" stroke="#76AEFF" stroke-width="2"/>
<line y1="-1" x2="12.4557" y2="-1" transform="matrix(-0.984808 0.173648 0.173648 0.984808 101.359 5.03418)" stroke="#76AEFF" stroke-width="2"/>
<line y1="-1" x2="12.4557" y2="-1" transform="matrix(-0.939693 0.34202 0.34202 0.939693 128.965 3.86719)" stroke="#76AEFF" stroke-width="2"/>
</g>
<defs>
<linearGradient id="paint0_linear_3092_122275" x1="960" y1="0" x2="960" y2="1080" gradientUnits="userSpaceOnUse">
<stop stop-color="#6CA9FF"/>
<stop offset="1" stop-color="#297EF9"/>
</linearGradient>
<linearGradient id="paint1_linear_3092_122275" x1="1258" y1="0" x2="1258" y2="1080" gradientUnits="userSpaceOnUse">
<stop stop-color="#69A6FF"/>
<stop offset="1" stop-color="#69A6FF" stop-opacity="0"/>
</linearGradient>
<clipPath id="clip0_3092_122275">
<rect width="1920" height="1080" fill="white"/>
</clipPath>
</defs>
</svg>
